<?xml version="1.0" encoding="UTF-8"?>
<!DOCTYPE svg PUBLIC "-//W3C//DTD SVG 1.1//EN" "http://www.w3.org/Graphics/SVG/1.1/DTD/svg11.dtd">
<!-- Creator: CorelDRAW X8 -->
<svg xmlns="http://www.w3.org/2000/svg" xml:space="preserve" width="1.90713in" height="0.530697in" version="1.1" style="shape-rendering:geometricPrecision; text-rendering:geometricPrecision; image-rendering:optimizeQuality; fill-rule:evenodd; clip-rule:evenodd"
viewBox="0 0 2254 627"
 xmlns:xlink="http://www.w3.org/1999/xlink">
 <defs>
  <style type="text/css">
   <![CDATA[
    .str0 {stroke:#3E4095;stroke-width:3.54629;stroke-linejoin:round}
    .fil2 {fill:none;fill-rule:nonzero}
    .fil0 {fill:#3E4095}
    .fil1 {fill:#3E4095;fill-rule:nonzero}
   ]]>
  </style>
 </defs>
 <g id="Layer_x0020_1">
  <metadata id="CorelCorpID_0Corel-Layer"/>
  <g id="_1549256410128">
   <g>
    <path class="fil0" d="M147 40c-92,7 -147,65 -147,161l0 211c0,77 37,131 99,152 11,-7 20,-16 27,-27 -56,-13 -87,-56 -87,-125l0 -211c0,-78 39,-122 108,-129l0 -32z"/>
    <path class="fil0" d="M204 572c104,0 167,-60 167,-162l0 -211c0,-90 -48,-146 -128,-159l0 33c57,13 89,56 89,126l0 211c0,76 -38,120 -106,128 -6,12 -14,24 -23,34l1 0z"/>
    <polygon class="fil1" points="225,26 225,0 167,0 167,26 "/>
    <path class="fil1" d="M68 627c104,-13 157,-71 157,-173l0 -414 -58 0 0 414c0,76 -33,117 -99,129l0 44z"/>
   </g>
   <g>
    <path class="fil2 str0" d="M732 109l-9 -5c-10,4 -19,6 -29,6l-57 0c-24,0 -47,0 -71,0 -23,0 -46,-1 -70,-1 -3,0 -5,1 -6,3 -1,3 0,5 3,6 4,2 8,4 11,5 4,1 7,2 11,3 3,1 5,2 8,2 2,1 4,2 6,4 2,2 3,4 4,7 1,3 2,7 2,13l0 303c0,9 0,16 -1,22 0,6 -1,10 -3,14 -3,3 -6,6 -10,7 -5,2 -11,4 -19,5 -4,1 -5,3 -5,6 0,2 2,4 6,4 22,1 45,1 68,1 22,0 44,0 66,-1l-1 -10c-19,1 -30,-3 -36,-11 -5,-8 -8,-21 -8,-38l0 -141c3,1 6,1 8,1 2,0 4,0 7,0 4,0 8,0 11,0 4,0 8,-1 12,-1 3,0 7,-1 10,-1 3,0 7,0 10,0 14,0 25,3 33,8 8,6 12,17 11,32 0,2 1,3 2,4 1,0 3,1 4,1 2,0 3,0 4,-1 2,0 2,-1 3,-3 3,-12 5,-25 7,-38 2,-14 3,-27 4,-40 0,-3 -1,-5 -4,-5 -3,-1 -5,-1 -7,1 -2,2 -5,5 -9,8 -5,3 -8,5 -11,5l-95 0 0 -140c6,0 11,-1 15,-1 4,-1 9,-2 15,-3 7,0 13,-1 19,-2 6,-1 13,-1 19,-1 14,0 25,3 34,9 8,7 12,18 12,33 0,2 1,4 3,5 2,0 5,0 7,-1 3,-2 5,-5 7,-9 2,-5 3,-9 4,-14 1,-6 2,-11 2,-17 1,-5 1,-11 1,-16 1,-3 1,-7 1,-10 0,-3 1,-6 1,-8z"/>
   </g>
   <g>
    <path id="1" class="fil2 str0" d="M997 482l0 -10c-8,-1 -16,-2 -23,-5 -8,-2 -14,-8 -18,-16 -14,-25 -27,-51 -38,-78 -12,-27 -23,-54 -35,-80l-24 -56 0 0c0,-1 -1,-2 -2,-4 -1,-2 -2,-5 -3,-7l0 0c-1,-4 -3,-8 -6,-13 -2,-5 -4,-10 -7,-15 -2,-4 -5,-8 -7,-12 -3,-4 -6,-6 -8,-7 -4,-1 -7,-1 -8,2 -11,25 -22,51 -33,77 -11,25 -21,51 -32,77 -7,17 -15,35 -23,54 -7,18 -15,36 -22,54 -2,3 -5,7 -8,11 -3,4 -6,7 -10,10 -4,3 -7,6 -11,7 -4,2 -8,2 -12,1l-2 10 96 1c4,0 6,-1 6,-4 0,-4 -1,-5 -5,-6 -4,0 -8,-1 -13,-3 -4,-1 -7,-4 -7,-8 0,-3 1,-8 4,-16 2,-8 5,-17 9,-26 3,-9 7,-18 11,-27 3,-9 7,-17 10,-23l88 0c7,18 15,34 22,50 7,15 14,32 21,49l-5 6c-2,2 -3,4 -2,5 1,2 3,3 6,3 6,1 13,1 19,1 6,0 13,0 19,0 9,0 18,0 27,0 9,-1 18,-1 26,-2zm-143 -135l-70 0c7,-17 13,-32 18,-46 5,-15 11,-30 17,-46l35 92z"/>
   </g>
   <g>
    <path id="2" class="fil2 str0" d="M1224 427c0,-2 -1,-4 -5,-4 -3,-1 -6,0 -7,2 -7,13 -17,23 -30,30 -12,7 -25,10 -39,10 -6,0 -13,-1 -19,-3 -7,-1 -12,-4 -17,-8 -5,-4 -9,-8 -12,-14 -3,-5 -5,-11 -5,-19l0 -204c0,-7 2,-12 7,-15 4,-3 10,-5 16,-4l7 0c3,0 5,-1 5,-4 0,-3 -1,-5 -4,-5 -7,-3 -15,-4 -24,-4 -8,-1 -16,-1 -24,-1 -5,0 -11,0 -16,0 -5,1 -11,1 -16,1l-31 0c-2,0 -4,0 -6,2 -1,1 -1,3 0,5 1,2 4,4 7,5 4,0 8,1 11,1 4,1 8,2 12,4 4,2 6,7 6,16l0 222c0,9 -2,17 -5,23 -4,7 -10,10 -20,10 -4,0 -6,2 -6,5 0,3 2,5 6,5 17,1 36,2 55,2 7,0 15,0 22,0 8,-1 15,-1 23,-1 8,0 17,0 25,0 9,0 18,0 27,0 8,0 17,0 25,0 9,0 17,1 26,1l1 -10c-1,0 -2,0 -2,0 0,0 -1,0 -2,0 4,-7 6,-13 6,-21 1,-7 2,-14 3,-21 0,-1 0,-2 0,-3 0,-1 0,-2 0,-3z"/>
   </g>
   <g>
    <path id="3" class="fil2 str0" d="M1564 482l0 -10c-8,-1 -16,-2 -24,-5 -7,-2 -13,-8 -18,-16 -14,-25 -26,-51 -38,-78 -11,-27 -23,-54 -34,-80l-24 -56 0 0c-1,-1 -2,-2 -2,-4 -1,-2 -2,-5 -3,-7l0 0c-2,-4 -4,-8 -6,-13 -2,-5 -5,-10 -7,-15 -3,-4 -5,-8 -8,-12 -2,-4 -5,-6 -7,-7 -4,-1 -7,-1 -9,2 -11,25 -21,51 -32,77 -11,25 -22,51 -32,77 -8,17 -15,35 -23,54 -8,18 -15,36 -23,54 -2,3 -4,7 -7,11 -3,4 -7,7 -10,10 -4,3 -8,6 -12,7 -4,2 -8,2 -11,1l-2 10 96 1c4,0 6,-1 6,-4 0,-4 -2,-5 -6,-6 -3,0 -7,-1 -12,-3 -5,-1 -7,-4 -7,-8 0,-3 1,-8 3,-16 3,-8 6,-17 9,-26 4,-9 8,-18 11,-27 4,-9 7,-17 10,-23l88 0c8,18 15,34 22,50 7,15 14,32 22,49l-5 6c-3,2 -3,4 -2,5 1,2 3,3 5,3 7,1 13,1 20,1 6,0 12,0 19,0 9,0 18,0 27,0 8,-1 17,-1 26,-2zm-144 -135l-69 0c7,-17 13,-32 18,-46 5,-15 10,-30 16,-46l35 92z"/>
   </g>
   <g>
    <path id="4" class="fil2 str0" d="M1940 196l-2 -10c-13,0 -26,-1 -39,-2 -13,0 -27,0 -40,0l-20 1c-3,0 -5,1 -6,3 -1,2 0,4 2,5 5,3 10,4 17,5 3,0 5,1 8,1 2,1 5,2 7,4 2,1 4,4 5,7 2,4 3,8 3,14l0 34c0,5 0,11 -1,17 0,5 0,11 0,17 0,9 0,18 1,29 0,10 1,19 1,29 1,11 1,22 1,33 1,10 1,22 0,33 -41,-40 -82,-80 -123,-119 -41,-40 -83,-78 -125,-117 0,-1 -2,-1 -3,-2 -2,0 -3,1 -4,1 -2,2 -4,3 -6,5 -2,2 -3,5 -3,8l0 258c0,8 -2,13 -6,17 -5,4 -10,5 -16,5l-7 0c-3,0 -5,1 -5,4 -1,3 0,5 4,6 7,1 15,2 24,3 8,0 16,0 25,0l19 0c6,0 12,0 19,0 6,0 13,0 19,0 3,0 5,-1 7,-3 1,-2 0,-4 -3,-5 -3,-3 -7,-5 -11,-5 -3,-1 -7,-1 -10,-2 -3,0 -5,-1 -7,-2 -3,0 -5,-2 -7,-3 -2,-2 -3,-5 -5,-9 -1,-4 -1,-9 -1,-15 0,-14 0,-28 -1,-41 0,-14 -1,-27 -1,-41 -1,-13 -2,-27 -2,-41 -1,-13 -1,-27 -1,-41 0,-3 0,-7 0,-10 0,-3 0,-7 0,-10l29 28 -1 0c35,35 71,70 107,105 37,35 75,68 116,99 2,1 5,1 7,0 2,0 3,-1 4,-4 2,-23 3,-46 4,-68 1,-23 1,-46 1,-70 0,-10 0,-21 0,-34 0,-12 -1,-24 -1,-35 0,-11 0,-22 0,-33 0,-11 0,-23 0,-35 0,-4 2,-6 7,-8 4,-2 8,-4 13,-5l-1 0c2,0 4,-1 6,-1 1,0 2,0 2,0z"/>
   </g>
   <g>
    <path id="5" class="fil2 str0" d="M2253 482l0 -10c-8,-1 -16,-2 -24,-5 -8,-2 -14,-8 -18,-16 -14,-25 -27,-51 -38,-78 -12,-27 -23,-54 -34,-80l-24 -56 0 0c-1,-1 -2,-2 -3,-4 0,-2 -1,-5 -2,-7l0 0c-2,-4 -4,-8 -6,-13 -2,-5 -5,-10 -7,-15 -3,-4 -6,-8 -8,-12 -3,-4 -5,-6 -8,-7 -4,-1 -6,-1 -8,2 -11,25 -22,51 -33,77 -10,25 -21,51 -32,77 -7,17 -14,35 -22,54 -8,18 -16,36 -23,54 -2,3 -4,7 -7,11 -3,4 -7,7 -11,10 -3,3 -7,6 -11,7 -4,2 -8,2 -12,1l-2 10 97 1c3,0 5,-1 5,-4 1,-4 -1,-5 -5,-6 -3,0 -8,-1 -12,-3 -5,-1 -7,-4 -7,-8 0,-3 1,-8 3,-16 2,-8 5,-17 9,-26 4,-9 7,-18 11,-27 4,-9 7,-17 10,-23l88 0c8,18 15,34 22,50 7,15 14,32 21,49l-5 6c-2,2 -2,4 -2,5 1,2 3,3 6,3 7,1 13,1 19,1 7,0 13,0 20,0 9,0 18,0 26,0 9,-1 18,-1 27,-2zm-144 -135l-69 0c7,-17 13,-32 17,-46 5,-15 11,-30 17,-46l35 92z"/>
   </g>
   <path id="6" class="fil1" d="M732 109l-9 -5c-10,4 -19,6 -29,6l-57 0c-24,0 -47,0 -71,0 -23,0 -46,-1 -70,-1 -3,0 -5,1 -6,3 -1,3 0,5 3,6 4,2 8,4 11,5 4,1 7,2 11,3 3,1 5,2 8,2 2,1 4,2 6,4 2,2 3,4 4,7 1,3 2,7 2,13l0 303c0,9 0,16 -1,22 0,6 -1,10 -3,14 -3,3 -6,6 -10,7 -5,2 -11,4 -19,5 -4,1 -5,3 -5,6 0,2 2,4 6,4 22,1 45,1 68,1 22,0 44,0 66,-1l-1 -10c-19,1 -30,-3 -36,-11 -5,-8 -8,-21 -8,-38l0 -141c3,1 6,1 8,1 2,0 4,0 7,0 4,0 8,0 11,0 4,0 8,-1 12,-1 3,0 7,-1 10,-1 3,0 7,0 10,0 14,0 25,3 33,8 8,6 12,17 11,32 0,2 1,3 2,4 1,0 3,1 4,1 2,0 3,0 4,-1 2,0 2,-1 3,-3 3,-12 5,-25 7,-38 2,-14 3,-27 4,-40 0,-3 -1,-5 -4,-5 -3,-1 -5,-1 -7,1 -2,2 -5,5 -9,8 -5,3 -8,5 -11,5l-95 0 0 -140c6,0 11,-1 15,-1 4,-1 9,-2 15,-3 7,0 13,-1 19,-2 6,-1 13,-1 19,-1 14,0 25,3 34,9 8,7 12,18 12,33 0,2 1,4 3,5 2,0 5,0 7,-1 3,-2 5,-5 7,-9 2,-5 3,-9 4,-14 1,-6 2,-11 2,-17 1,-5 1,-11 1,-16 1,-3 1,-7 1,-10 0,-3 1,-6 1,-8z"/>
   <path id="7" class="fil1" d="M997 482l0 -10c-8,-1 -16,-2 -23,-5 -8,-2 -14,-8 -18,-16 -14,-25 -27,-51 -38,-78 -12,-27 -23,-54 -35,-80l-24 -56 0 0c0,-1 -1,-2 -2,-4 -1,-2 -2,-5 -3,-7l0 0c-1,-4 -3,-8 -6,-13 -2,-5 -4,-10 -7,-15 -2,-4 -5,-8 -7,-12 -3,-4 -6,-6 -8,-7 -4,-1 -7,-1 -8,2 -11,25 -22,51 -33,77 -11,25 -21,51 -32,77 -7,17 -15,35 -23,54 -7,18 -15,36 -22,54 -2,3 -5,7 -8,11 -3,4 -6,7 -10,10 -4,3 -7,6 -11,7 -4,2 -8,2 -12,1l-2 10 96 1c4,0 6,-1 6,-4 0,-4 -1,-5 -5,-6 -4,0 -8,-1 -13,-3 -4,-1 -7,-4 -7,-8 0,-3 1,-8 4,-16 2,-8 5,-17 9,-26 3,-9 7,-18 11,-27 3,-9 7,-17 10,-23l88 0c7,18 15,34 22,50 7,15 14,32 21,49l-5 6c-2,2 -3,4 -2,5 1,2 3,3 6,3 6,1 13,1 19,1 6,0 13,0 19,0 9,0 18,0 27,0 9,-1 18,-1 26,-2zm-143 -135l-70 0c7,-17 13,-32 18,-46 5,-15 11,-30 17,-46l35 92z"/>
   <path id="8" class="fil1" d="M1224 427c0,-2 -1,-4 -5,-4 -3,-1 -6,0 -7,2 -7,13 -17,23 -30,30 -12,7 -25,10 -39,10 -6,0 -13,-1 -19,-3 -7,-1 -12,-4 -17,-8 -5,-4 -9,-8 -12,-14 -3,-5 -5,-11 -5,-19l0 -204c0,-7 2,-12 7,-15 4,-3 10,-5 16,-4l7 0c3,0 5,-1 5,-4 0,-3 -1,-5 -4,-5 -7,-3 -15,-4 -24,-4 -8,-1 -16,-1 -24,-1 -5,0 -11,0 -16,0 -5,1 -11,1 -16,1l-31 0c-2,0 -4,0 -6,2 -1,1 -1,3 0,5 1,2 4,4 7,5 4,0 8,1 11,1 4,1 8,2 12,4 4,2 6,7 6,16l0 222c0,9 -2,17 -5,23 -4,7 -10,10 -20,10 -4,0 -6,2 -6,5 0,3 2,5 6,5 17,1 36,2 55,2 7,0 15,0 22,0 8,-1 15,-1 23,-1 8,0 17,0 25,0 9,0 18,0 27,0 8,0 17,0 25,0 9,0 17,1 26,1l1 -10c-1,0 -2,0 -2,0 0,0 -1,0 -2,0 4,-7 6,-13 6,-21 1,-7 2,-14 3,-21 0,-1 0,-2 0,-3 0,-1 0,-2 0,-3z"/>
   <path id="9" class="fil1" d="M1564 482l0 -10c-8,-1 -16,-2 -24,-5 -7,-2 -13,-8 -18,-16 -14,-25 -26,-51 -38,-78 -11,-27 -23,-54 -34,-80l-24 -56 0 0c-1,-1 -2,-2 -2,-4 -1,-2 -2,-5 -3,-7l0 0c-2,-4 -4,-8 -6,-13 -2,-5 -5,-10 -7,-15 -3,-4 -5,-8 -8,-12 -2,-4 -5,-6 -7,-7 -4,-1 -7,-1 -9,2 -11,25 -21,51 -32,77 -11,25 -22,51 -32,77 -8,17 -15,35 -23,54 -8,18 -15,36 -23,54 -2,3 -4,7 -7,11 -3,4 -7,7 -10,10 -4,3 -8,6 -12,7 -4,2 -8,2 -11,1l-2 10 96 1c4,0 6,-1 6,-4 0,-4 -2,-5 -6,-6 -3,0 -7,-1 -12,-3 -5,-1 -7,-4 -7,-8 0,-3 1,-8 3,-16 3,-8 6,-17 9,-26 4,-9 8,-18 11,-27 4,-9 7,-17 10,-23l88 0c8,18 15,34 22,50 7,15 14,32 22,49l-5 6c-3,2 -3,4 -2,5 1,2 3,3 5,3 7,1 13,1 20,1 6,0 12,0 19,0 9,0 18,0 27,0 8,-1 17,-1 26,-2zm-144 -135l-69 0c7,-17 13,-32 18,-46 5,-15 10,-30 16,-46l35 92z"/>
   <path id="10" class="fil1" d="M1940 196l-2 -10c-13,0 -26,-1 -39,-2 -13,0 -27,0 -40,0l-20 1c-3,0 -5,1 -6,3 -1,2 0,4 2,5 5,3 10,4 17,5 3,0 5,1 8,1 2,1 5,2 7,4 2,1 4,4 5,7 2,4 3,8 3,14l0 34c0,5 0,11 -1,17 0,5 0,11 0,17 0,9 0,18 1,29 0,10 1,19 1,29 1,11 1,22 1,33 1,10 1,22 0,33 -41,-40 -82,-80 -123,-119 -41,-40 -83,-78 -125,-117 0,-1 -2,-1 -3,-2 -2,0 -3,1 -4,1 -2,2 -4,3 -6,5 -2,2 -3,5 -3,8l0 258c0,8 -2,13 -6,17 -5,4 -10,5 -16,5l-7 0c-3,0 -5,1 -5,4 -1,3 0,5 4,6 7,1 15,2 24,3 8,0 16,0 25,0l19 0c6,0 12,0 19,0 6,0 13,0 19,0 3,0 5,-1 7,-3 1,-2 0,-4 -3,-5 -3,-3 -7,-5 -11,-5 -3,-1 -7,-1 -10,-2 -3,0 -5,-1 -7,-2 -3,0 -5,-2 -7,-3 -2,-2 -3,-5 -5,-9 -1,-4 -1,-9 -1,-15 0,-14 0,-28 -1,-41 0,-14 -1,-27 -1,-41 -1,-13 -2,-27 -2,-41 -1,-13 -1,-27 -1,-41 0,-3 0,-7 0,-10 0,-3 0,-7 0,-10l29 28 -1 0c35,35 71,70 107,105 37,35 75,68 116,99 2,1 5,1 7,0 2,0 3,-1 4,-4 2,-23 3,-46 4,-68 1,-23 1,-46 1,-70 0,-10 0,-21 0,-34 0,-12 -1,-24 -1,-35 0,-11 0,-22 0,-33 0,-11 0,-23 0,-35 0,-4 2,-6 7,-8 4,-2 8,-4 13,-5l-1 0c2,0 4,-1 6,-1 1,0 2,0 2,0z"/>
   <path id="11" class="fil1" d="M2253 482l0 -10c-8,-1 -16,-2 -24,-5 -8,-2 -14,-8 -18,-16 -14,-25 -27,-51 -38,-78 -12,-27 -23,-54 -34,-80l-24 -56 0 0c-1,-1 -2,-2 -3,-4 0,-2 -1,-5 -2,-7l0 0c-2,-4 -4,-8 -6,-13 -2,-5 -5,-10 -7,-15 -3,-4 -6,-8 -8,-12 -3,-4 -5,-6 -8,-7 -4,-1 -6,-1 -8,2 -11,25 -22,51 -33,77 -10,25 -21,51 -32,77 -7,17 -14,35 -22,54 -8,18 -16,36 -23,54 -2,3 -4,7 -7,11 -3,4 -7,7 -11,10 -3,3 -7,6 -11,7 -4,2 -8,2 -12,1l-2 10 97 1c3,0 5,-1 5,-4 1,-4 -1,-5 -5,-6 -3,0 -8,-1 -12,-3 -5,-1 -7,-4 -7,-8 0,-3 1,-8 3,-16 2,-8 5,-17 9,-26 4,-9 7,-18 11,-27 4,-9 7,-17 10,-23l88 0c8,18 15,34 22,50 7,15 14,32 21,49l-5 6c-2,2 -2,4 -2,5 1,2 3,3 6,3 7,1 13,1 19,1 7,0 13,0 20,0 9,0 18,0 26,0 9,-1 18,-1 27,-2zm-144 -135l-69 0c7,-17 13,-32 17,-46 5,-15 11,-30 17,-46l35 92z"/>
  </g>
 </g>
</svg>
