<?xml version="1.0" encoding="UTF-8"?>
<!DOCTYPE svg PUBLIC "-//W3C//DTD SVG 1.1//EN" "http://www.w3.org/Graphics/SVG/1.1/DTD/svg11.dtd">
<!-- Creator: CorelDRAW X8 -->
<svg xmlns="http://www.w3.org/2000/svg" xml:space="preserve" width="2.42076in" height="0.792795in" version="1.1" style="shape-rendering:geometricPrecision; text-rendering:geometricPrecision; image-rendering:optimizeQuality; fill-rule:evenodd; clip-rule:evenodd"
viewBox="0 0 3969 1300"
 xmlns:xlink="http://www.w3.org/1999/xlink">
 <defs>
  <style type="text/css">
   <![CDATA[
    .str0 {stroke:#3E4095;stroke-width:4.91837}
    .fil0 {fill:#3E4095}
    .fil1 {fill:#3E4095;fill-rule:nonzero}
   ]]>
  </style>
 </defs>
 <g id="Layer_x0020_1">
  <metadata id="CorelCorpID_0Corel-Layer"/>
  <g id="_2291404373472">
   <path class="fil0" d="M375 70c-161,12 -259,114 -259,285l0 371c0,136 65,230 175,267 19,-12 35,-28 47,-47 -97,-23 -152,-98 -152,-220l0 -371c0,-137 68,-216 189,-228l0 -57z"/>
   <path class="fil0" d="M476 1007c183,0 294,-105 294,-285l0 -371c0,-159 -84,-258 -225,-281l0 59c100,22 156,98 156,222l0 371c0,135 -67,213 -187,226 -10,22 -24,42 -39,59l1 0z"/>
   <polygon class="fil1" points="513,46 513,0 410,0 410,46 "/>
   <path class="fil1" d="M236 1105c183,-23 277,-126 277,-306l0 -729 -103 0 0 729c0,135 -57,207 -174,229l0 77z"/>
   <g>
    <path class="fil1" d="M1260 338c0,-20 -3,-41 -10,-61 -6,-21 -15,-39 -28,-56 -13,-16 -28,-29 -48,-40 -19,-10 -41,-16 -67,-16 -4,0 -8,1 -12,1 -5,0 -9,1 -13,2 -25,5 -47,13 -66,22 -18,9 -33,21 -44,34 -12,14 -20,30 -25,49 -5,19 -8,40 -8,64 0,12 2,24 6,37 5,12 11,23 18,34 8,12 16,22 26,32 10,9 21,17 32,24 12,8 23,13 35,17 12,4 24,6 35,6 2,0 4,0 7,0 2,0 5,0 8,0 2,0 5,0 7,0 2,-1 4,-1 6,-1 19,-5 37,-11 54,-19 18,-8 32,-18 45,-30 13,-12 23,-26 31,-43 7,-16 11,-35 11,-56zm-42 -1c0,17 -2,34 -7,50 -5,15 -13,29 -22,41 -10,12 -21,21 -35,28 -14,7 -31,11 -49,11 -19,0 -37,-5 -52,-14 -15,-9 -28,-20 -39,-34 -10,-15 -18,-31 -23,-49 -6,-18 -8,-35 -8,-53 0,-18 2,-34 7,-50 5,-16 13,-29 22,-41 10,-11 22,-21 36,-27 15,-7 31,-11 49,-11 20,0 37,5 52,14 15,8 28,20 38,34 10,14 18,30 23,48 5,17 8,35 8,53zm442 -101c-5,-1 -11,-2 -16,-2 -6,1 -12,1 -18,1 -6,0 -13,-1 -19,-1 -7,0 -14,0 -20,0 -3,1 -4,2 -4,4 0,2 2,3 4,3 1,0 1,0 2,0 0,1 0,1 1,1 2,0 5,0 9,1 4,0 5,1 5,3 0,8 -1,17 -4,28 -2,11 -6,22 -10,34 -3,12 -8,24 -13,36 -5,12 -9,24 -13,35 -2,4 -4,8 -6,12 -2,4 -3,8 -4,12 -2,-5 -4,-9 -6,-13 -1,-4 -3,-8 -4,-11 -1,-4 -3,-8 -4,-12 -2,-4 -3,-8 -5,-13 -8,-20 -16,-40 -24,-60 -8,-20 -17,-39 -28,-58 -1,-1 -3,-2 -4,-2 -2,0 -3,1 -4,2 -13,27 -25,55 -37,83 -12,28 -24,55 -36,83 0,-2 -1,-4 -1,-5 -1,-2 -1,-3 -2,-4 0,-1 -1,-2 -1,-4 0,-1 -1,-2 -2,-4 -8,-23 -16,-45 -24,-69 -7,-23 -13,-47 -16,-70 1,-2 3,-2 4,-2 2,-1 4,-1 5,-1 3,0 5,-1 8,-2 2,0 3,-2 3,-4 0,-2 -1,-3 -4,-3 -14,0 -28,-1 -42,-1 -14,0 -28,0 -42,0 -3,0 -4,0 -5,2 -1,1 -1,3 1,4 3,1 5,3 7,3 2,1 5,1 7,2 2,0 4,1 6,1 2,1 4,2 5,3 2,3 5,8 8,15 3,8 7,16 10,26 4,9 8,20 11,31 4,11 8,22 12,33 3,10 6,21 10,32 4,10 7,21 11,30 3,10 7,19 10,27 3,8 6,15 9,20 1,1 3,2 4,2 2,0 4,-1 5,-2 7,-16 14,-31 21,-46 7,-15 14,-31 20,-47 5,-12 11,-25 16,-37 6,-13 11,-25 17,-38 4,10 8,19 11,26 3,7 6,16 10,26 7,19 15,39 23,59 9,21 18,40 28,57 1,2 3,2 5,2 2,0 3,-1 4,-2 8,-17 15,-34 22,-53 7,-18 14,-37 21,-56 2,-5 4,-11 6,-17 2,-5 4,-11 7,-17 0,-2 1,-5 2,-7 1,-3 2,-5 3,-8 4,-9 7,-19 12,-29 4,-10 9,-19 14,-27 2,-4 5,-6 9,-6l8 1c3,0 5,-1 5,-3 0,-2 0,-3 -3,-4zm264 116c0,-17 -4,-33 -11,-49 -7,-15 -16,-28 -28,-40 -12,-11 -25,-21 -41,-28 -15,-6 -32,-10 -49,-10 -17,0 -34,3 -51,8 -16,5 -31,13 -44,23 -13,10 -24,22 -32,37 -8,14 -12,31 -12,50 0,17 4,33 11,47 7,15 17,28 29,38 12,11 26,20 42,26 16,6 32,9 49,9 16,0 32,-2 49,-7 16,-5 31,-12 44,-21 13,-9 24,-21 32,-35 8,-14 12,-30 12,-48zm-37 -1c0,14 -2,27 -6,39 -5,12 -11,22 -19,30 -8,8 -18,15 -29,19 -12,5 -25,7 -39,7 -15,0 -28,-3 -41,-9 -12,-6 -23,-14 -32,-24 -9,-10 -16,-21 -21,-34 -5,-14 -7,-28 -7,-42 0,-14 2,-27 7,-39 5,-11 11,-21 20,-29 8,-8 18,-14 30,-19 11,-4 24,-6 38,-6 15,0 28,3 40,8 13,6 23,14 32,24 8,10 15,21 20,34 5,13 7,27 7,41zm222 64c0,-2 -1,-3 -3,-3 -3,-1 -5,0 -6,2 -5,9 -13,17 -22,22 -10,5 -19,8 -30,8 -5,0 -9,-1 -14,-2 -5,-2 -9,-4 -13,-7 -4,-2 -7,-6 -9,-10 -2,-4 -4,-9 -4,-14l0 -154c0,-5 2,-9 5,-11 4,-3 8,-4 13,-4l5 0c2,0 3,-1 4,-3 0,-2 -1,-3 -3,-4 -6,-1 -12,-2 -18,-2 -6,-1 -12,-1 -18,-1 -5,0 -9,0 -13,0 -4,1 -8,1 -12,1l-23 0c-2,0 -3,0 -4,1 -1,1 -1,3 0,4 0,2 2,3 5,3 3,1 6,2 8,2 3,0 6,1 9,3 3,1 4,5 4,11l0 168c0,7 -1,13 -3,17 -3,5 -8,8 -15,8 -3,0 -4,1 -4,3 -1,3 1,4 3,4 14,1 28,2 42,2 6,0 11,-1 17,-1 6,0 11,0 17,0 6,0 13,0 19,0 7,0 13,0 20,0 6,0 13,0 19,0 7,0 13,0 19,1l2 -7c-1,-1 -2,-1 -2,-1 0,0 -1,0 -2,0 3,-5 5,-10 5,-15 1,-6 1,-11 2,-17 0,0 0,-1 0,-2 0,-1 0,-1 0,-2zm275 41l0 -7c-6,-1 -12,-2 -17,-4 -6,-2 -11,-6 -14,-12 -10,-19 -20,-39 -29,-59 -8,-20 -17,-40 -25,-60l-19 -42 0 0c0,-1 -1,-2 -1,-3 -1,-2 -1,-4 -2,-5l0 0c-2,-3 -3,-7 -5,-10 -1,-4 -3,-8 -5,-11 -2,-4 -4,-7 -6,-10 -2,-2 -4,-4 -6,-5 -3,-1 -5,0 -6,2 -8,19 -16,38 -24,57 -9,20 -17,39 -25,59 -5,13 -11,26 -17,40 -6,14 -11,28 -17,41 -1,2 -3,5 -5,8 -3,3 -5,6 -8,8 -3,2 -6,4 -9,5 -3,1 -6,1 -8,1l-2 7 73 1c2,0 4,-1 4,-3 0,-3 -1,-4 -4,-4 -3,-1 -6,-1 -9,-2 -4,-1 -6,-3 -6,-6 0,-3 1,-7 3,-13 2,-6 4,-12 7,-19 2,-7 5,-14 8,-21 3,-7 5,-12 7,-17l67 0c6,13 11,26 16,37 5,12 11,25 16,38l-3 4c-2,1 -3,3 -2,4 1,2 2,2 4,2 5,1 10,1 15,1 5,0 9,0 14,0 7,0 14,0 21,0 6,-1 13,-1 19,-2zm-108 -101l-52 0c5,-13 10,-24 13,-35 4,-11 8,-23 13,-35l26 70zm312 37c0,-8 -1,-16 -4,-22 -3,-7 -7,-13 -12,-18 -5,-5 -11,-9 -17,-13 -7,-4 -13,-6 -21,-9 8,-6 14,-13 20,-22 7,-8 10,-18 10,-27 0,-10 -3,-17 -8,-24 -6,-7 -12,-12 -20,-16 -8,-4 -17,-7 -26,-9 -9,-2 -17,-3 -25,-3 -5,0 -10,0 -15,1 -6,0 -11,1 -16,1 -5,1 -10,1 -14,2 -5,0 -10,0 -15,0 -1,0 -3,0 -5,0 -2,0 -4,-1 -6,-1 -2,0 -3,1 -4,3 0,3 1,4 3,4 2,0 4,1 7,2 3,1 5,2 8,3 2,2 4,4 5,5 2,2 3,5 3,7l0 167c0,5 0,9 -1,12 0,3 -1,6 -3,8 -1,1 -3,3 -6,4 -3,1 -6,2 -10,3 -3,0 -4,2 -4,4 1,2 2,3 5,3 7,0 15,0 24,0 9,1 17,1 24,1 8,0 16,1 23,1 8,0 16,0 24,0l0 -1 1 0c2,0 4,0 6,0 2,0 3,0 5,-1l-1 0c9,-1 16,-4 24,-7 8,-4 15,-9 21,-14 6,-6 11,-12 14,-20 4,-7 6,-15 6,-24zm-61 -107c0,13 -3,23 -11,30 -7,7 -17,10 -29,10l-13 0 0 -78c6,-1 11,-2 15,-2 11,0 21,4 28,12 7,7 10,16 10,28zm25 114c0,7 -1,13 -3,18 -3,6 -6,11 -10,15 -4,4 -9,7 -14,9 -6,2 -12,3 -18,3 -3,0 -6,0 -10,-1 -4,-1 -7,-3 -11,-4 -3,-2 -6,-5 -8,-7 -3,-3 -4,-6 -4,-10l0 -80 8 -1c8,0 17,1 25,3 8,2 16,6 23,11 6,5 12,11 16,18 4,8 6,16 6,26zm144 54c-2,-2 -4,-3 -6,-4 -3,0 -5,0 -8,0 -2,0 -3,-1 -5,-1 -2,0 -3,0 -4,-1 0,0 -1,-2 -2,-4 -1,-2 -1,-5 -2,-7 0,-3 -1,-5 -1,-7 -1,-2 -1,-4 -1,-5l0 -167c0,-6 2,-10 6,-12 4,-2 8,-3 14,-4 2,0 4,-2 3,-3 0,-2 -1,-3 -3,-4 -7,0 -13,0 -19,0 -6,1 -12,1 -19,1 -6,0 -12,0 -19,-1 -7,0 -13,0 -20,0 -2,1 -4,2 -4,4 0,2 1,3 4,3 5,1 10,2 14,5 5,2 7,6 7,11l0 168c0,2 0,5 -1,8 0,2 -1,5 -2,8 0,3 -2,5 -3,7 -2,1 -3,2 -6,2 0,0 -1,0 -2,1 -1,0 -2,0 -3,0 -3,-1 -5,0 -6,3 -1,2 0,4 2,5 2,1 5,1 8,1 4,1 7,0 11,0 4,0 7,0 11,-1 3,0 6,0 8,0l15 0c6,1 11,1 15,0 5,0 10,0 15,0l3 -6zm237 -269l-1 -7c-12,-1 -25,-2 -38,-2 -13,0 -25,-1 -38,-1l-19 0c-3,0 -4,1 -5,2 0,2 0,3 0,4 2,3 5,5 8,6 3,0 6,1 9,1 2,0 4,0 6,0 2,1 3,1 5,3 1,1 2,3 3,6 1,3 2,6 2,11l0 241c0,5 -1,11 -2,19 0,7 -2,15 -3,23 -2,8 -3,15 -6,23 -2,7 -4,12 -7,17 -1,2 -4,5 -7,9 -3,4 -7,8 -10,11 -5,6 -9,10 -13,15 -4,4 -6,7 -7,9 -1,2 0,3 1,5 2,1 3,1 5,0 13,-6 25,-13 36,-22 11,-8 21,-18 29,-29 8,-11 15,-23 20,-35 5,-13 7,-26 7,-41l0 -245c0,-8 3,-14 7,-17 5,-3 11,-5 18,-6zm286 272l0 -7c-6,-1 -12,-2 -18,-4 -6,-2 -10,-6 -14,-12 -10,-19 -20,-39 -28,-59 -9,-20 -17,-40 -26,-60l-18 -42 0 0c-1,-1 -1,-2 -2,-3 0,-2 -1,-4 -2,-5l0 0c-1,-3 -3,-7 -4,-10 -2,-4 -4,-8 -6,-11 -2,-4 -4,-7 -5,-10 -2,-2 -4,-4 -6,-5 -3,-1 -5,0 -6,2 -9,19 -17,38 -25,57 -8,20 -16,39 -24,59 -6,13 -11,26 -17,40 -6,14 -12,28 -17,41 -2,2 -4,5 -6,8 -2,3 -5,6 -7,8 -3,2 -6,4 -9,5 -3,1 -6,1 -9,1l-1 7 72 1c3,0 4,-1 4,-3 1,-3 -1,-4 -3,-4 -3,-1 -6,-1 -10,-2 -4,-1 -5,-3 -5,-6 0,-3 1,-7 2,-13 2,-6 4,-12 7,-19 3,-7 6,-14 8,-21 3,-7 6,-12 8,-17l66 0c6,13 11,26 17,37 5,12 10,25 16,38l-4 4c-2,1 -2,3 -1,4 0,2 2,2 4,2 5,1 10,1 14,1 5,0 10,0 15,0 7,0 13,0 20,0 7,-1 13,-1 20,-2zm-108 -101l-53 0c6,-13 10,-24 14,-35 4,-11 8,-23 12,-35l27 70zm470 97c-4,-2 -7,-3 -9,-3 -1,0 -3,0 -5,-1 -4,0 -7,-1 -10,-2 -4,-1 -7,-4 -9,-8 -3,-3 -5,-9 -7,-18 -1,-9 -3,-18 -5,-29 -1,-11 -2,-22 -3,-33 -1,-11 -2,-21 -3,-29 0,-4 -1,-7 -1,-10 0,-3 0,-5 -1,-8 -3,-26 -7,-53 -11,-80 0,-2 -1,-3 -3,-3 -2,-1 -4,0 -5,1 -6,8 -11,16 -16,24 -4,9 -9,17 -13,25 -1,2 -3,5 -4,8 -2,3 -4,6 -5,8 -4,8 -8,16 -12,24 -5,8 -9,15 -13,23 -6,12 -12,23 -18,35 -6,11 -12,22 -18,34 -3,-4 -5,-9 -8,-15 -3,-5 -7,-13 -13,-23 -7,-14 -15,-28 -24,-44 -8,-15 -17,-30 -25,-44 -8,-14 -15,-26 -21,-36 -7,-10 -12,-17 -15,-20 -2,-1 -3,-1 -5,0 -2,0 -3,1 -3,3 0,2 -1,4 -1,7 0,3 -1,6 -1,9 -1,9 -3,20 -4,33 -1,12 -3,26 -4,40 -2,14 -4,28 -6,42 -1,14 -3,27 -5,38 -1,12 -3,22 -4,30 -2,8 -3,12 -4,14 -1,2 -2,4 -5,4 -2,0 -4,1 -7,1 -2,0 -4,0 -6,1 -3,0 -4,2 -4,4 1,2 2,3 4,3 12,1 24,1 36,2 11,0 23,0 35,0 2,0 4,-1 4,-3 1,-2 0,-3 -2,-4 -5,-2 -8,-4 -10,-4 -2,0 -3,-1 -5,-1 -1,-1 -3,-1 -3,-2 -1,0 -2,-1 -3,-2 0,-1 0,-3 0,-5 -1,-2 -1,-5 -1,-9l0 -7c0,-14 1,-28 3,-42 2,-15 4,-29 6,-43 1,-5 2,-10 3,-15 0,-5 1,-11 2,-16 2,4 4,8 6,11 1,3 3,6 4,8 1,3 3,6 4,9 2,3 4,7 6,11 4,9 9,19 14,28 6,10 11,20 17,29 6,10 11,19 18,29 6,9 12,17 19,25 2,2 3,2 5,2 1,0 2,-1 3,-2 4,-8 9,-16 13,-23 4,-8 8,-16 12,-24 10,-18 19,-35 28,-53 9,-17 19,-34 30,-51 0,4 0,8 1,11 0,3 0,6 1,9 0,3 1,6 1,9 1,3 1,7 2,12 2,15 4,30 5,45 2,15 3,30 3,45 0,3 0,6 0,8 -1,3 -1,5 -2,7 0,1 0,3 1,4 1,1 2,1 4,1 23,2 46,3 70,3l2 -7zm113 1c-2,-2 -4,-3 -7,-4 -2,0 -5,0 -8,0 -1,0 -3,-1 -4,-1 -2,0 -3,0 -4,-1 0,0 -1,-2 -2,-4 -1,-2 -2,-5 -2,-7 -1,-3 -1,-5 -2,-7 0,-2 0,-4 0,-5l0 -167c0,-6 2,-10 6,-12 3,-2 8,-3 14,-4 2,0 3,-2 3,-3 0,-2 -1,-3 -4,-4 -6,0 -12,0 -18,0 -6,1 -13,1 -19,1 -6,0 -13,0 -19,-1 -7,0 -13,0 -20,0 -3,1 -4,2 -4,4 0,2 1,3 4,3 5,1 9,2 14,5 4,2 7,6 7,11l0 168c0,2 -1,5 -1,8 0,2 -1,5 -2,8 -1,3 -2,5 -3,7 -2,1 -4,2 -6,2 0,0 -1,0 -2,1 -1,0 -2,0 -4,0 -2,-1 -4,0 -5,3 -1,2 0,4 2,5 2,1 5,1 8,1 3,1 7,0 11,0 3,0 7,0 10,-1 4,0 6,0 9,0l15 0c5,1 10,1 15,0 5,0 10,0 15,0l3 -6z"/>
    <path class="fil1" d="M3969 242l-1 -7c-12,-1 -24,-2 -36,-2 -12,0 -24,0 -37,0 -4,0 -5,1 -5,4 1,3 3,4 5,5 3,0 6,1 9,1 1,0 3,0 5,1 2,0 3,1 4,2 2,1 3,2 4,4 1,2 1,4 1,8 0,10 0,21 0,32 0,11 1,21 1,32 0,10 0,21 0,32 0,11 0,21 0,32 0,9 -2,18 -6,26 -3,7 -9,13 -15,18 -6,5 -14,9 -22,12 -9,2 -17,4 -26,4 -9,0 -17,-2 -25,-4 -8,-2 -16,-6 -22,-11 -6,-5 -11,-11 -15,-18 -4,-8 -6,-16 -6,-26 0,-11 0,-21 0,-32 0,-11 0,-22 0,-33l0 -65c0,-6 2,-10 6,-11 4,-2 9,-3 14,-4 3,0 4,-1 4,-3 0,-2 -1,-4 -4,-4 -23,-2 -45,-2 -68,-2l-13 0c-3,0 -5,1 -5,4 1,3 2,4 5,5 2,0 5,0 8,1 3,0 7,1 10,2 4,2 5,6 5,13l0 122c0,1 1,3 1,6 0,2 1,4 1,7l0 -1c0,13 3,23 10,32 7,9 15,17 25,23 11,6 22,10 34,13 12,3 24,4 35,4 13,0 26,-2 38,-6 12,-5 23,-11 32,-19 9,-8 16,-18 21,-29 5,-12 8,-24 8,-38l0 -115c0,-5 2,-9 6,-11 5,-2 9,-4 14,-4z"/>
   </g>
   <path class="fil1 str0" d="M1178 538l-9 -4c-10,4 -19,6 -28,6l-57 0c-23,0 -46,0 -69,-1 -23,0 -46,0 -70,-1 -2,0 -4,1 -5,4 -1,2 0,4 3,5 3,2 7,4 11,5 3,2 7,3 10,3 3,1 5,2 8,3 2,0 4,1 6,3 2,2 3,4 4,7 1,3 2,7 2,13l0 298c0,9 0,16 -1,22 0,5 -1,10 -4,13 -2,4 -5,6 -9,8 -5,2 -11,3 -19,5 -3,1 -5,2 -5,5 0,3 2,4 6,4 22,1 44,2 67,2 22,0 43,-1 65,-2l-1 -9c-18,1 -30,-3 -35,-11 -5,-8 -8,-21 -8,-38l0 -138c3,0 6,0 7,0 2,0 5,0 8,0 4,0 8,0 11,0 3,0 7,0 11,-1 4,0 7,0 10,-1 3,0 7,0 10,0 14,0 25,3 33,8 7,6 11,17 11,32 0,1 0,3 1,3 2,1 3,1 5,2 1,0 2,0 4,-1 1,0 2,-1 2,-3 3,-12 5,-25 7,-38 2,-13 3,-26 4,-40 0,-2 -1,-4 -4,-4 -3,-1 -5,-1 -7,1 -2,2 -5,5 -9,8 -4,3 -8,5 -11,5l-93 0 0 -138c6,0 11,-1 15,-1 4,-1 9,-2 14,-3 7,0 13,-1 19,-2 6,0 13,-1 19,-1 14,0 25,3 33,9 8,6 12,17 12,33 0,2 1,3 3,4 2,1 5,1 7,-1 3,-2 5,-5 7,-9 2,-4 3,-9 4,-14 1,-5 2,-10 2,-16 0,-5 1,-11 1,-16 1,-3 1,-7 1,-10 0,-3 0,-6 1,-8zm286 368l0 -10c-8,-1 -16,-2 -23,-5 -8,-2 -14,-8 -18,-16 -14,-25 -26,-50 -37,-77 -12,-26 -23,-52 -34,-78l-24 -56 0 1c-1,-1 -1,-3 -2,-5 -1,-2 -2,-4 -3,-7l0 1c-1,-4 -3,-8 -6,-13 -2,-5 -4,-10 -7,-15 -2,-4 -5,-8 -7,-12 -3,-3 -5,-6 -8,-7 -4,-1 -6,0 -8,2 -11,25 -21,51 -32,76 -10,25 -21,50 -31,76 -8,17 -15,35 -23,53 -7,18 -15,36 -22,53 -2,3 -4,7 -7,11 -3,4 -7,7 -10,10 -4,3 -8,6 -12,7 -4,1 -7,2 -11,1l-2 9 95 2c3,0 5,-2 5,-5 1,-3 -1,-4 -5,-5 -3,-1 -7,-2 -12,-3 -5,-1 -7,-4 -7,-8 0,-3 1,-8 3,-16 3,-8 6,-16 9,-25 4,-9 7,-18 11,-27 4,-9 7,-16 10,-22l87 0c7,17 14,33 21,48 7,16 14,32 21,49l-5 6c-2,2 -3,3 -2,5 1,2 3,3 6,3 6,0 13,0 19,1 6,0 12,0 19,0 9,0 18,0 26,-1 9,0 17,0 26,-1zm-141 -133l-69 0c7,-17 13,-32 18,-46 5,-14 10,-29 16,-45l35 91zm390 79c0,-3 -2,-4 -5,-5 -4,0 -6,1 -8,3 -7,12 -16,22 -29,29 -12,7 -25,10 -38,10 -7,0 -13,-1 -19,-3 -7,-1 -12,-4 -17,-8 -5,-3 -9,-8 -12,-13 -3,-6 -4,-12 -4,-19l0 -201c0,-7 2,-12 6,-15 5,-3 10,-5 16,-4l7 0c3,0 5,-1 5,-4 0,-3 -1,-4 -4,-5 -7,-2 -15,-4 -23,-4 -8,0 -16,0 -24,0 -6,0 -11,0 -16,0 -5,0 -11,0 -16,0l-30 0c-3,0 -5,1 -6,2 -1,2 -1,3 0,5 1,2 3,4 7,5 4,1 7,1 11,2 4,0 7,1 11,3 4,2 6,7 6,15l0 219c0,10 -2,17 -5,23 -3,7 -10,10 -19,10 -4,0 -6,2 -6,5 0,3 2,5 5,5 18,1 36,1 55,1 7,0 14,0 22,0 7,0 15,0 22,0 8,0 17,-1 25,-1 9,0 17,0 26,0 8,0 17,0 25,1 8,0 17,0 25,1l2 -10c-1,0 -2,0 -2,0 -1,0 -2,0 -3,0 4,-7 6,-13 7,-20 1,-7 1,-15 2,-22 0,-1 0,-2 0,-3 0,-1 1,-1 1,-2zm359 54l0 -10c-8,-1 -15,-2 -23,-5 -8,-2 -14,-8 -18,-16 -13,-25 -26,-50 -37,-77 -12,-26 -23,-52 -34,-78l-24 -56 0 1c0,-1 -1,-3 -2,-5 -1,-2 -1,-4 -3,-7l0 1c-1,-4 -3,-8 -5,-13 -3,-5 -5,-10 -7,-15 -3,-4 -6,-8 -8,-12 -3,-3 -5,-6 -8,-7 -4,-1 -6,0 -8,2 -10,25 -21,51 -32,76 -10,25 -21,50 -31,76 -7,17 -15,35 -23,53 -7,18 -15,36 -22,53 -2,3 -4,7 -7,11 -3,4 -7,7 -10,10 -4,3 -8,6 -12,7 -4,1 -7,2 -11,1l-2 9 95 2c3,0 5,-2 5,-5 1,-3 -1,-4 -5,-5 -3,-1 -7,-2 -12,-3 -5,-1 -7,-4 -7,-8 0,-3 1,-8 3,-16 3,-8 6,-16 9,-25 4,-9 8,-18 11,-27 4,-9 7,-16 10,-22l87 0c7,17 14,33 21,48 7,16 14,32 21,49l-5 6c-2,2 -2,3 -2,5 1,2 3,3 6,3 7,0 13,0 19,1 6,0 12,0 19,0 9,0 18,0 26,-1 9,0 18,0 26,-1zm-141 -133l-69 0c7,-17 13,-32 18,-46 5,-14 10,-29 16,-45l35 91zm504 -149l-2 -9c-13,-1 -26,-2 -38,-2 -13,-1 -27,-1 -40,0l-19 0c-3,0 -5,1 -6,3 -1,2 -1,4 2,5 4,3 10,4 17,5 2,0 5,1 7,1 3,1 5,2 7,4 2,1 4,4 6,7 1,4 2,8 2,14l0 33c0,6 0,11 0,16 -1,6 -1,11 -1,17 0,9 0,19 1,29 0,10 1,19 1,28 1,11 1,22 1,33 1,11 1,21 0,33 -40,-40 -80,-79 -121,-118 -40,-38 -81,-77 -123,-115 0,-1 -2,-1 -3,-1 -2,0 -3,0 -4,1 -2,1 -4,3 -6,5 -1,2 -2,4 -2,7l0 255c0,7 -2,12 -7,16 -4,4 -9,5 -15,5l-7 0c-3,0 -5,1 -6,4 0,3 1,5 4,5 8,2 16,3 24,3 8,1 16,1 24,1l19 0c6,0 13,0 19,0 7,0 13,0 19,0 3,0 5,-1 7,-3 1,-2 0,-4 -3,-6 -3,-2 -7,-4 -10,-4 -4,-1 -7,-1 -11,-2 -2,0 -5,-1 -7,-2 -2,0 -4,-2 -6,-3 -2,-2 -4,-5 -5,-9 -1,-4 -2,-9 -2,-15 0,-13 0,-27 0,-40 -1,-13 -1,-27 -2,-40 0,-14 -1,-27 -2,-40 0,-14 0,-27 0,-41 0,-3 0,-7 0,-10 0,-3 0,-7 0,-10l28 28 0 0c34,35 69,69 105,103 36,35 74,67 114,97 2,1 4,2 6,1 3,0 4,-2 4,-4 2,-23 4,-45 5,-68 0,-22 1,-45 1,-68 0,-10 0,-21 -1,-34 0,-12 0,-23 0,-34 0,-11 0,-22 0,-33 0,-11 0,-22 0,-34 0,-4 2,-6 6,-8 4,-2 9,-3 13,-5l-1 0c3,0 4,-1 6,-1 2,0 2,0 2,0zm365 282l0 -10c-7,-1 -15,-2 -23,-5 -7,-2 -13,-8 -18,-16 -13,-25 -26,-50 -37,-77 -11,-26 -23,-52 -34,-78l-23 -56 0 1c-1,-1 -2,-3 -3,-5 0,-2 -1,-4 -2,-7l0 1c-2,-4 -4,-8 -6,-13 -2,-5 -5,-10 -7,-15 -3,-4 -5,-8 -8,-12 -2,-3 -5,-6 -7,-7 -4,-1 -7,0 -8,2 -11,25 -22,51 -32,76 -11,25 -22,50 -32,76 -7,17 -15,35 -22,53 -8,18 -16,36 -23,53 -2,3 -4,7 -7,11 -3,4 -6,7 -10,10 -4,3 -7,6 -11,7 -4,1 -8,2 -12,1l-2 9 95 2c4,0 6,-2 6,-5 0,-3 -2,-4 -5,-5 -4,-1 -8,-2 -13,-3 -4,-1 -7,-4 -7,-8 0,-3 1,-8 4,-16 2,-8 5,-16 9,-25 3,-9 7,-18 10,-27 4,-9 7,-16 10,-22l87 0c7,17 15,33 21,48 7,16 14,32 22,49l-5 6c-3,2 -3,3 -2,5 1,2 3,3 5,3 7,0 13,0 19,1 6,0 13,0 19,0 9,0 18,0 27,-1 8,0 17,0 25,-1zm-141 -133l-68 0c7,-17 12,-32 17,-46 5,-14 11,-29 17,-45l34 91z"/>
   <path class="fil1 str0" d="M12 1251c2,0 4,1 5,2 2,2 2,4 2,6 0,3 -1,5 -2,7 -2,2 -4,3 -7,3 -2,0 -4,-1 -5,-3 -2,-1 -3,-3 -3,-6 0,-2 1,-4 3,-6 2,-2 4,-3 7,-3zm32 0c2,0 4,1 6,2 1,2 2,4 2,6 0,3 -1,5 -3,7 -2,2 -4,3 -7,3 -2,0 -4,-1 -5,-3 -1,-1 -2,-3 -2,-6 0,-2 1,-4 3,-6 1,-2 3,-3 6,-3zm33 0c2,0 4,1 5,2 2,2 2,4 2,6 0,3 -1,5 -2,7 -2,2 -4,3 -7,3 -2,0 -4,-1 -6,-3 -1,-1 -2,-3 -2,-6 0,-2 1,-4 3,-6 2,-2 4,-3 7,-3zm74 -66c8,0 15,2 20,5 6,3 11,7 14,13 3,6 5,12 5,19 0,9 -3,17 -7,24 -4,7 -9,12 -16,16 -7,4 -15,6 -24,6 -8,0 -14,-2 -20,-5 -6,-3 -10,-7 -13,-13 -3,-6 -5,-12 -5,-20 0,-8 2,-16 6,-23 4,-7 10,-12 17,-16 7,-4 15,-6 23,-6zm-1 13c-6,0 -11,1 -16,4 -4,2 -8,6 -10,11 -3,5 -5,11 -5,17 0,7 3,14 7,18 5,5 11,8 18,8 6,0 11,-2 16,-5 4,-2 8,-6 11,-11 2,-5 4,-10 4,-17 0,-7 -3,-13 -7,-18 -5,-5 -10,-7 -18,-7zm111 -13c7,0 13,1 18,4 5,3 9,8 12,13 3,6 4,12 4,20 0,8 -2,16 -6,23 -3,7 -9,13 -16,17 -6,4 -14,6 -22,6 -8,0 -14,-2 -19,-5 -6,-4 -9,-9 -11,-15l-10 49 -15 0 23 -111 14 0 -3 13c4,-4 9,-8 14,-10 5,-3 11,-4 17,-4zm-5 12c-6,0 -11,1 -16,4 -4,3 -8,7 -11,12 -3,5 -4,11 -4,17 0,8 2,14 7,18 4,5 10,7 17,7 6,0 11,-1 16,-4 5,-3 9,-7 12,-12 2,-5 4,-11 4,-17 0,-7 -3,-13 -7,-18 -5,-5 -11,-7 -18,-7zm98 -12c7,0 14,2 20,5 6,3 10,7 13,13 3,6 5,12 5,19 0,9 -2,17 -6,24 -4,7 -10,12 -17,16 -7,4 -15,6 -23,6 -8,0 -15,-2 -20,-5 -6,-3 -11,-7 -14,-13 -3,-6 -4,-12 -4,-20 0,-8 2,-16 6,-23 4,-7 9,-12 16,-16 7,-4 15,-6 24,-6zm-1 13c-6,0 -11,1 -16,4 -5,2 -8,6 -11,11 -3,5 -4,11 -4,17 0,7 2,14 7,18 4,5 10,8 18,8 6,0 11,-2 15,-5 5,-2 9,-6 11,-11 3,-5 4,-10 4,-17 0,-7 -2,-13 -6,-18 -5,-5 -11,-7 -18,-7zm171 -13c9,0 16,2 21,7 6,4 8,11 8,19 0,2 0,5 -1,8l-9 48 -15 0 9 -46c1,-2 1,-4 1,-6 0,-5 -2,-10 -5,-13 -4,-3 -8,-4 -14,-4 -7,0 -13,2 -18,6 -6,4 -9,10 -11,17l-9 46 -15 0 9 -46c1,-2 1,-4 1,-6 0,-5 -2,-10 -5,-13 -3,-3 -8,-4 -14,-4 -7,0 -14,2 -19,7 -5,4 -9,11 -10,18l-9 44 -15 0 16 -81 15 0 -3 13c7,-9 17,-14 30,-14 8,0 14,1 19,5 5,3 8,8 10,14 7,-13 18,-19 33,-19zm77 83c-9,0 -17,-2 -22,-7 -5,-4 -8,-11 -8,-19 0,-3 1,-5 1,-8l10 -48 15 0 -10 46c0,2 0,4 0,6 0,5 1,9 5,12 3,4 8,5 14,5 7,0 13,-2 19,-7 5,-5 8,-11 10,-19l9 -43 14 0 -16 81 -14 0 2 -13c-6,9 -16,14 -29,14zm108 -115l-23 114 -15 0 23 -114 15 0zm52 32c11,0 19,3 26,10 6,6 9,15 9,25 0,4 0,8 -1,12l-66 0c0,7 3,13 7,18 5,4 11,6 19,6 4,0 9,-1 13,-2 4,-1 8,-4 11,-6l6 9c-8,7 -18,11 -31,11 -8,0 -15,-1 -21,-5 -6,-3 -10,-7 -13,-13 -4,-5 -5,-12 -5,-19 0,-9 2,-17 6,-24 4,-7 9,-12 16,-16 7,-4 15,-6 24,-6zm22 36c0,-8 -2,-14 -5,-18 -4,-4 -10,-6 -17,-6 -8,0 -14,2 -20,7 -5,4 -9,10 -11,17l53 0zm52 -19c7,-11 18,-17 32,-17l-2 14c-8,0 -15,2 -22,7 -6,5 -10,11 -13,19l-8 42 -14 0 16 -81 14 0 -3 16zm79 -17c7,0 14,2 20,5 5,3 10,7 13,13 3,6 5,12 5,19 0,9 -2,17 -6,24 -4,7 -10,12 -17,16 -7,4 -15,6 -24,6 -7,0 -14,-2 -20,-5 -6,-3 -10,-7 -13,-13 -3,-6 -5,-12 -5,-20 0,-8 2,-16 6,-23 4,-7 10,-12 17,-16 7,-4 15,-6 24,-6zm-2 13c-5,0 -11,1 -15,4 -5,2 -9,6 -11,11 -3,5 -4,11 -4,17 0,7 2,14 7,18 4,5 10,8 17,8 6,0 11,-2 16,-5 5,-2 8,-6 11,-11 3,-5 4,-10 4,-17 0,-7 -2,-13 -7,-18 -4,-5 -10,-7 -18,-7z"/>
  </g>
 </g>
</svg>
